<svg id="Layer_1" data-name="Layer 1" xmlns="http://www.w3.org/2000/svg" viewBox="0 0 311.63 27.25"><defs><style>.cls-1,.cls-4,.cls-5{fill:#ed1c24}.cls-3,.cls-6{fill:none}.cls-3,.cls-4,.cls-5,.cls-6{stroke:#fff}.cls-3,.cls-4{stroke-width:.75px}</style></defs><path class="cls-1" d="M129.52 124.77l5.48 17.49h3.12v4.5h-12.87v-4.5h3.35l-1.25-4.5h-6.78l-1.39 4.5h3.49v4.5h-11.56v-4.5h3.23l5.08-17.49h-3.49v-4.5H133v4.5zm-5.45 1.07l-2.34 8h4.55zM154.53 124.77l4.41 13.23 4.4-13.24h-3.29v-4.5h11.54v4.5h-3.16l-7.53 22.14h-5.4l-7.79-22.13h-3.13v-4.5h13.33v4.5zM182.81 124.77v17.49h4v4.5h-14.76v-4.5H176v-17.49h-3.94v-4.5h14.79v4.5zM212.35 127.49a7.07 7.07 0 01-1.12 4.08 8 8 0 01-3.39 2.69l4.21 8h3.39v4.5h-8l-5.9-11.58h-3v7.08h3.28v4.5h-13.64v-4.5h3.59v-17.49h-3.59v-4.5h14.92a11.07 11.07 0 016.79 1.85 6.32 6.32 0 012.46 5.37zm-7.12.3a2.69 2.69 0 00-.95-2.26 4 4 0 00-2.6-.76h-3.09v6.15h2.5q4.14 0 4.14-3.13z" transform="translate(-111.11 -119.83)"/><path class="cls-1" d="M232.65 124.77l5.47 17.49h3.12v4.5h-12.86v-4.5h3.35l-1.25-4.5h-6.78l-1.39 4.5h3.49v4.5h-11.56v-4.5h3.23l5.08-17.49h-3.49v-4.5h17.11v4.5zm-5.45 1.07l-2.34 8h4.55zM252.5 124.77v17.49h7.73v-8.17h5.11v12.67H242v-4.5h3.73v-17.49H242v-4.5h14.39v4.5zM281.36 124.77l4.24 12.71 4-12.71h-2.41v-4.5h9.42v4.5h-2.41l4.29 12.71 4.13-12.71H300v-4.5h10.5v4.5h-2.85l-7.25 22.13h-4.84l-4.11-12.09-3.91 12.09h-5L275 124.77h-2.77v-4.5h11.8v4.5zM310.41 133.44a13.73 13.73 0 011.82-7.11 12.62 12.62 0 015.13-4.79 17.74 17.74 0 0115.2 0 12.46 12.46 0 015.1 4.81 14.8 14.8 0 010 14.22 12.31 12.31 0 01-5.12 4.8 17.48 17.48 0 01-15.08 0 12.71 12.71 0 01-5.18-4.8 13.48 13.48 0 01-1.87-7.13zm21.78 0a10.79 10.79 0 00-.87-4.39 7.44 7.44 0 00-2.51-3.14 6.87 6.87 0 00-7.67 0 7.52 7.52 0 00-2.51 3.14 10.63 10.63 0 00-.88 4.39 11 11 0 00.9 4.54 7.4 7.4 0 002.52 3.17 6.35 6.35 0 003.77 1.15 6.61 6.61 0 003.86-1.15 7.26 7.26 0 002.52-3.17 11.31 11.31 0 00.87-4.58zM365.52 127.49a7.07 7.07 0 01-1.12 4.08 7.87 7.87 0 01-3.39 2.69l4.22 8h3.38v4.5h-8l-5.9-11.58h-3v7.08H355v4.5h-13.65v-4.5h3.59v-17.49h-3.59v-4.5h14.92a11.1 11.1 0 016.8 1.85 6.32 6.32 0 012.45 5.37zm-7.11.3a2.72 2.72 0 00-1-2.26 4.07 4.07 0 00-2.61-.76h-3.09v6.15h2.5q4.21 0 4.2-3.13zM379.84 124.77v17.49h7.72v-8.17h5.12v12.67h-23.39v-4.5H373v-17.49h-3.73v-4.5h14.39v4.5zM422.74 133.84a13.43 13.43 0 01-1.75 7.07 11.06 11.06 0 01-4.81 4.37 16.15 16.15 0 01-7.1 1.48h-14.42v-4.5h4v-17.49h-4v-4.5h14.11a17.44 17.44 0 017.17 1.4 10.84 10.84 0 015 4.44 14.84 14.84 0 011.8 7.73zm-7.12-.23c0-2.92-.66-5.12-2-6.61a7.51 7.51 0 00-5.89-2.23h-2.31v17.49H407a10.2 10.2 0 005.42-1.2A5.93 5.93 0 00415 138a13.41 13.41 0 00.62-4.39z" transform="translate(-111.11 -119.83)"/><path stroke-width=".75" stroke-linecap="round" stroke="#fff" fill="none" d="M35.72 3.5h8.67"/><path class="cls-3" d="M41.72 3.5l4.34 20.75h1.66L55.06 3.5M51.89 3.5h6.33M65.56 24.25L70.22 3.5M63.22 3.5h9M63.39 24.25h8.83"/><path class="cls-3" d="M190.45 123.33h14.33s6.5 4.67 0 9.5h-9.61" transform="translate(-111.11 -119.83)"/><path class="cls-3" d="M86.5 3.5l-5.33 20.75M79 24.25h8.34M91.5 13l6 11.25M96 24.25h5.84M2.89 23.67l9.75-19.25h5.25M16.14 4.42l1.75 19.33M1.14 23.75h6.58"/><path class="cls-4" d="M15.64 23.75h5.75"/><path class="cls-3" d="M7.03 15.49h10.11M116.22 3.5l-9.83 20.75M123.56 24.25l-4-20.75h-8.17M110.67 15.23h11.15"/><path class="cls-5" d="M104.39 24.25h6.67"/><path class="cls-3" d="M119.22 24.25h7.5"/><path class="cls-5" d="M140.72 3.5l-5 20.75M142.89 3.5h-9"/><path class="cls-6" d="M133.89 24.25h17v-7.08"/><path class="cls-3" d="M168.5 3.42l4.33 20.74h1.67l7.33-20.74"/><path class="cls-3" d="M180.79 3.64l4.34 20.75h1.66l7.34-20.75M163.64 3.5l7.67-.09"/><path class="cls-4" d="M178.14 3.5h5.33M189.39 3.5h6.58"/><path class="cls-3" d="M343.78 123.17h14.33s6.5 4.66 0 9.5h-9.61" transform="translate(-111.11 -119.83)"/><path class="cls-3" d="M239.83 3.34l-5.33 20.75M232.33 24.09h8.34M244.83 12.84l6 11.25M249.33 24.09h5.84"/><path class="cls-5" d="M267.54 3.32l-5 20.75M269.71 3.32h-9"/><path class="cls-6" d="M260.71 24.07h17v-7.08"/><path class="cls-5" d="M292.93 3.32l-5 20.75"/><ellipse class="cls-3" cx="324.61" cy="133.73" rx="10.57" ry="9.54" transform="rotate(-66.29 177.331 158.886)"/><path class="cls-6" d="M401.05 123.33h9.3s7.91.37 8 8.48a12.08 12.08 0 01-8.52 12.19h-12.75" transform="translate(-111.11 -119.83)"/></svg>